<?xml version="1.0" encoding="UTF-8" standalone="no"?>
<!DOCTYPE svg PUBLIC "-//W3C//DTD SVG 1.1//EN"
 "http://www.w3.org/Graphics/SVG/1.1/DTD/svg11.dtd">
<!-- Generated by graphviz version 2.48.0 (20210717.1556)
 -->
<!-- Title: my_graph Pages: 1 -->
<svg width="638pt" height="188pt"
 viewBox="0.00 0.00 638.00 188.00" xmlns="http://www.w3.org/2000/svg" xmlns:xlink="http://www.w3.org/1999/xlink">
<g id="graph0" class="graph" transform="scale(1 1) rotate(0) translate(4 184)">
<title>my_graph</title>
<polygon fill="white" stroke="transparent" points="-4,4 -4,-184 634,-184 634,4 -4,4"/>
<!-- 0_0_0 -->
<g id="node1" class="node">
<title>0_0_0</title>
<text text-anchor="middle" x="279" y="-158.3" font-family="Times,serif" font-size="14.00">S</text>
</g>
<!-- 1_0_0 -->
<g id="node2" class="node">
<title>1_0_0</title>
<text text-anchor="middle" x="99" y="-86.3" font-family="Times,serif" font-size="14.00">V</text>
</g>
<!-- 0_0_0&#45;&#45;1_0_0 -->
<g id="edge1" class="edge">
<title>0_0_0&#45;&#45;1_0_0</title>
<path fill="none" stroke="black" d="M251.66,-150.37C217.63,-137.14 159.88,-114.68 126.01,-101.5"/>
</g>
<!-- 1_0_1 -->
<g id="node3" class="node">
<title>1_0_1</title>
<text text-anchor="middle" x="243" y="-86.3" font-family="Times,serif" font-size="14.00">C</text>
</g>
<!-- 0_0_0&#45;&#45;1_0_1 -->
<g id="edge2" class="edge">
<title>0_0_0&#45;&#45;1_0_1</title>
<path fill="none" stroke="black" d="M270.1,-143.7C264.52,-132.85 257.36,-118.92 251.8,-108.1"/>
</g>
<!-- 1_0_2 -->
<g id="node4" class="node">
<title>1_0_2</title>
<text text-anchor="middle" x="315" y="-86.3" font-family="Times,serif" font-size="14.00">V</text>
</g>
<!-- 0_0_0&#45;&#45;1_0_2 -->
<g id="edge3" class="edge">
<title>0_0_0&#45;&#45;1_0_2</title>
<path fill="none" stroke="black" d="M287.9,-143.7C293.48,-132.85 300.64,-118.92 306.2,-108.1"/>
</g>
<!-- 1_0_3 -->
<g id="node5" class="node">
<title>1_0_3</title>
<text text-anchor="middle" x="495" y="-86.3" font-family="Times,serif" font-size="14.00">C</text>
</g>
<!-- 0_0_0&#45;&#45;1_0_3 -->
<g id="edge4" class="edge">
<title>0_0_0&#45;&#45;1_0_3</title>
<path fill="none" stroke="black" d="M306.36,-152.13C347.91,-138.67 426.45,-113.22 467.87,-99.79"/>
</g>
<!-- 2_0_0 -->
<g id="node6" class="node">
<title>2_0_0</title>
<text text-anchor="middle" x="27" y="-14.3" font-family="Times,serif" font-size="14.00">B1</text>
</g>
<!-- 1_0_0&#45;&#45;2_0_0 -->
<g id="edge5" class="edge">
<title>1_0_0&#45;&#45;2_0_0</title>
<path fill="none" stroke="black" d="M81.2,-71.7C70.04,-60.85 55.71,-46.92 44.59,-36.1"/>
</g>
<!-- 2_0_1 -->
<g id="node7" class="node">
<title>2_0_1</title>
<text text-anchor="middle" x="99" y="-14.3" font-family="Times,serif" font-size="14.00">M2</text>
</g>
<!-- 1_0_0&#45;&#45;2_0_1 -->
<g id="edge6" class="edge">
<title>1_0_0&#45;&#45;2_0_1</title>
<path fill="none" stroke="black" d="M99,-71.7C99,-60.85 99,-46.92 99,-36.1"/>
</g>
<!-- 2_1_0 -->
<g id="node8" class="node">
<title>2_1_0</title>
<text text-anchor="middle" x="171" y="-14.3" font-family="Times,serif" font-size="14.00">M3</text>
</g>
<!-- 1_0_1&#45;&#45;2_1_0 -->
<g id="edge7" class="edge">
<title>1_0_1&#45;&#45;2_1_0</title>
<path fill="none" stroke="black" d="M225.2,-71.7C214.04,-60.85 199.71,-46.92 188.59,-36.1"/>
</g>
<!-- 2_1_1 -->
<g id="node9" class="node">
<title>2_1_1</title>
<text text-anchor="middle" x="243" y="-14.3" font-family="Times,serif" font-size="14.00">B2</text>
</g>
<!-- 1_0_1&#45;&#45;2_1_1 -->
<g id="edge8" class="edge">
<title>1_0_1&#45;&#45;2_1_1</title>
<path fill="none" stroke="black" d="M243,-71.7C243,-60.85 243,-46.92 243,-36.1"/>
</g>
<!-- 2_2_0 -->
<g id="node10" class="node">
<title>2_2_0</title>
<text text-anchor="middle" x="315" y="-14.3" font-family="Times,serif" font-size="14.00">M1</text>
</g>
<!-- 1_0_2&#45;&#45;2_2_0 -->
<g id="edge9" class="edge">
<title>1_0_2&#45;&#45;2_2_0</title>
<path fill="none" stroke="black" d="M315,-71.7C315,-60.85 315,-46.92 315,-36.1"/>
</g>
<!-- 2_2_1 -->
<g id="node11" class="node">
<title>2_2_1</title>
<text text-anchor="middle" x="387" y="-14.3" font-family="Times,serif" font-size="14.00">M2</text>
</g>
<!-- 1_0_2&#45;&#45;2_2_1 -->
<g id="edge10" class="edge">
<title>1_0_2&#45;&#45;2_2_1</title>
<path fill="none" stroke="black" d="M332.8,-71.7C343.96,-60.85 358.29,-46.92 369.41,-36.1"/>
</g>
<!-- 2_3_0 -->
<g id="node12" class="node">
<title>2_3_0</title>
<text text-anchor="middle" x="459" y="-14.3" font-family="Times,serif" font-size="14.00">M1</text>
</g>
<!-- 1_0_3&#45;&#45;2_3_0 -->
<g id="edge11" class="edge">
<title>1_0_3&#45;&#45;2_3_0</title>
<path fill="none" stroke="black" d="M486.1,-71.7C480.52,-60.85 473.36,-46.92 467.8,-36.1"/>
</g>
<!-- 2_3_1 -->
<g id="node13" class="node">
<title>2_3_1</title>
<text text-anchor="middle" x="531" y="-14.3" font-family="Times,serif" font-size="14.00">M3</text>
</g>
<!-- 1_0_3&#45;&#45;2_3_1 -->
<g id="edge12" class="edge">
<title>1_0_3&#45;&#45;2_3_1</title>
<path fill="none" stroke="black" d="M503.9,-71.7C509.48,-60.85 516.64,-46.92 522.2,-36.1"/>
</g>
<!-- 2_3_2 -->
<g id="node14" class="node">
<title>2_3_2</title>
<text text-anchor="middle" x="603" y="-14.3" font-family="Times,serif" font-size="14.00">B2</text>
</g>
<!-- 1_0_3&#45;&#45;2_3_2 -->
<g id="edge13" class="edge">
<title>1_0_3&#45;&#45;2_3_2</title>
<path fill="none" stroke="black" d="M521.42,-71.88C538.16,-61.03 559.72,-47.05 576.48,-36.19"/>
</g>
</g>
</svg>
